<svg width="246" height="103" viewBox="0 0 246 103" fill="none" xmlns="http://www.w3.org/2000/svg">
<rect width="246" height="103" fill="white"/>
<path d="M12 12H42L61.9999 49H42L12 12Z" fill="#284B73"/>
<path d="M112 12H81.9995L61.9996 49H81.9995L112 12Z" fill="#284B73"/>
<path d="M42 49H61.9999L40 91H8L42 49Z" fill="#284B73"/>
<path d="M81.9996 49H61.9996L83.9996 91H116L81.9996 49Z" fill="#284B73"/>
<path d="M134 12H164L184 49H164L134 12Z" fill="#284B73"/>
<path d="M234 12H204L184 49H204L234 12Z" fill="#284B73"/>
<path d="M164 49H184L162 91H130L164 49Z" fill="#284B73"/>
<path d="M204 49H184L206 91H238L204 49Z" fill="#284B73"/>
<rect width="246" height="103" fill="white" fill-opacity="0.5"/>
</svg>
